font.ufo
<glyph name="numbersign" format="2">
  <advance width="658"/>
  <unicode hex="0023"/>
  <outline>
    <contour>
      <point x="141" y="0" type="line"/>
      <point x="171" y="0" type="line"/>
      <point x="286" y="730" type="line"/>
      <point x="256" y="730" type="line"/>
    </contour>
    <contour>
      <point x="372" y="0" type="line"/>
      <point x="402" y="0" type="line"/>
      <point x="517" y="730" type="line"/>
      <point x="487" y="730" type="line"/>
    </contour>
    <contour>
      <point x="40" y="227" type="line"/>
      <point x="584" y="227" type="line"/>
      <point x="584" y="255" type="line"/>
      <point x="40" y="255" type="line"/>
    </contour>
    <contour>
      <point x="74" y="475" type="line"/>
      <point x="618" y="475" type="line"/>
      <point x="618" y="503" type="line"/>
      <point x="74" y="503" type="line"/>
    </contour>
  </outline>
</glyph>
<glyph name="dollar" format="2">
  <advance width="660"/>
  <unicode hex="0024"/>
  <outline>
    <contour>
      <point x="333" y="2" type="curve" smooth="yes"/>
      <point x="502" y="2"/>
      <point x="584" y="83"/>
      <point x="584" y="193" type="curve" smooth="yes"/>
      <point x="584" y="297"/>
      <point x="508" y="378"/>
      <point x="368" y="391" type="curve" smooth="yes"/>
      <point x="302" y="397" type="line" smooth="yes"/>
      <point x="201" y="406"/>
      <point x="142" y="453"/>
      <point x="142" y="542" type="curve" smooth="yes"/>
      <point x="142" y="629"/>
      <point x="196" y="698"/>
      <point x="328" y="698" type="curve" smooth="yes"/>
      <point x="466" y="698"/>
      <point x="524" y="618"/>
      <point x="524" y="522" type="curve"/>
      <point x="556" y="522" type="line"/>
      <point x="556" y="633"/>
      <point x="484" y="728"/>
      <point x="328" y="728" type="curve" smooth="yes"/>
      <point x="178" y="728"/>
      <point x="110" y="644"/>
      <point x="110" y="542" type="curve" smooth="yes"/>
      <point x="110" y="438"/>
      <point x="181" y="378"/>
      <point x="297" y="367" type="curve" smooth="yes"/>
      <point x="363" y="361" type="line" smooth="yes"/>
      <point x="491" y="349"/>
      <point x="552" y="281"/>
      <point x="552" y="193" type="curve" smooth="yes"/>
      <point x="552" y="94"/>
      <point x="479" y="32"/>
      <point x="333" y="32" type="curve" smooth="yes"/>
      <point x="174" y="32"/>
      <point x="102" y="104"/>
      <point x="102" y="218" type="curve"/>
      <point x="70" y="218" type="line"/>
      <point x="70" y="93"/>
      <point x="151" y="2"/>
    </contour>
    <contour>
      <point x="317" y="-129" type="line"/>
      <point x="347" y="-129" type="line"/>
      <point x="347" y="17" type="line"/>
      <point x="317" y="17" type="line"/>
    </contour>
    <contour>
      <point x="313" y="708" type="line"/>
      <point x="343" y="708" type="line"/>
      <point x="343" y="827" type="line"/>
      <point x="313" y="827" type="line"/>
    </contour>
  </outline>
</glyph>
<glyph name="plus" format="2">
  <advance width="584"/>
  <unicode hex="002B"/>
  <outline>
    <contour>
      <point x="276" y="120" type="line"/>
      <point x="308" y="120" type="line"/>
      <point x="308" y="570" type="line"/>
      <point x="276" y="570" type="line"/>
    </contour>
    <contour>
      <point x="86" y="331" type="line"/>
      <point x="498" y="331" type="line"/>
      <point x="498" y="359" type="line"/>
      <point x="86" y="359" type="line"/>
    </contour>
  </outline>
</glyph>
<glyph name="three" format="2">
  <advance width="600"/>
  <unicode hex="0033"/>
  <outline>
    <contour>
      <point x="292" y="-16" type="curve" smooth="yes"/>
      <point x="440" y="-16"/>
      <point x="528" y="84"/>
      <point x="528" y="202" type="curve" smooth="yes"/>
      <point x="528" y="214" type="line" smooth="yes"/>
      <point x="528" y="337"/>
      <point x="440" y="436"/>
      <point x="296" y="436" type="curve" smooth="yes"/>
      <point x="250" y="436"/>
      <point x="215" y="425"/>
      <point x="188" y="407" type="curve"/>
      <point x="195" y="404" type="line"/>
      <point x="507" y="672" type="line"/>
      <point x="507" y="730" type="line"/>
      <point x="84" y="730" type="line"/>
      <point x="84" y="700" type="line"/>
      <point x="475" y="700" type="line"/>
      <point x="481" y="688" type="line"/>
      <point x="166" y="418" type="line"/>
      <point x="191" y="378" type="line"/>
      <point x="217" y="395"/>
      <point x="248" y="406"/>
      <point x="294" y="406" type="curve" smooth="yes"/>
      <point x="420" y="406"/>
      <point x="496" y="328"/>
      <point x="496" y="208" type="curve" smooth="yes"/>
      <point x="496" y="93"/>
      <point x="416" y="14"/>
      <point x="292" y="14" type="curve" smooth="yes"/>
      <point x="164" y="14"/>
      <point x="88" y="93"/>
      <point x="88" y="213" type="curve"/>
      <point x="56" y="213" type="line"/>
      <point x="56" y="82"/>
      <point x="143" y="-16"/>
    </contour>
  </outline>
</glyph>
<glyph name="four" format="2">
  <advance width="610"/>
  <unicode hex="0034"/>
  <outline>
    <contour>
      <point x="58" y="200" type="line"/>
      <point x="576" y="200" type="line"/>
      <point x="576" y="228" type="line"/>
      <point x="93" y="228" type="line"/>
      <point x="86" y="238" type="line"/>
      <point x="404" y="718" type="line"/>
      <point x="382" y="736" type="line"/>
      <point x="58" y="246" type="line"/>
    </contour>
    <contour>
      <point x="440" y="0" type="line"/>
      <point x="472" y="0" type="line"/>
      <point x="472" y="508" type="line"/>
      <point x="440" y="508" type="line"/>
    </contour>
  </outline>
</glyph>
<glyph name="six" format="2">
  <advance width="644"/>
  <unicode hex="0036"/>
  <outline>
    <contour>
      <point x="338" y="-16" type="curve" smooth="yes"/>
      <point x="498" y="-16"/>
      <point x="580" y="100"/>
      <point x="580" y="230" type="curve" smooth="yes"/>
      <point x="580" y="360"/>
      <point x="496" y="470"/>
      <point x="340" y="470" type="curve" smooth="yes"/>
      <point x="185" y="470"/>
      <point x="106" y="363"/>
      <point x="104" y="226" type="curve"/>
      <point x="116" y="226" type="line"/>
      <point x="116" y="349" type="line" smooth="yes"/>
      <point x="116" y="577"/>
      <point x="205" y="704"/>
      <point x="406" y="704" type="curve" smooth="yes"/>
      <point x="437" y="704"/>
      <point x="479" y="701"/>
      <point x="518" y="695" type="curve"/>
      <point x="518" y="725" type="line"/>
      <point x="479" y="731"/>
      <point x="442" y="734"/>
      <point x="409" y="734" type="curve" smooth="yes"/>
      <point x="186" y="734"/>
      <point x="88" y="601"/>
      <point x="88" y="351" type="curve" smooth="yes"/>
      <point x="88" y="321" type="line" smooth="yes"/>
      <point x="88" y="88"/>
      <point x="180" y="-16"/>
    </contour>
    <contour>
      <point x="338" y="14" type="curve" smooth="yes"/>
      <point x="197" y="14"/>
      <point x="127" y="123"/>
      <point x="127" y="228" type="curve" smooth="yes"/>
      <point x="127" y="347"/>
      <point x="199" y="440"/>
      <point x="338" y="440" type="curve" smooth="yes"/>
      <point x="479" y="440"/>
      <point x="548" y="346"/>
      <point x="548" y="230" type="curve" smooth="yes"/>
      <point x="548" y="114"/>
      <point x="477" y="14"/>
    </contour>
  </outline>
</glyph>
<glyph name="eight" format="2">
  <advance width="614"/>
  <unicode hex="0038"/>
  <outline>
    <contour>
      <point x="307" y="-16" type="curve" smooth="yes"/>
      <point x="466" y="-16"/>
      <point x="554" y="83"/>
      <point x="554" y="195" type="curve" smooth="yes"/>
      <point x="554" y="303"/>
      <point x="474" y="374"/>
      <point x="397" y="387" type="curve"/>
      <point x="397" y="397" type="line"/>
      <point x="460" y="416"/>
      <point x="527" y="466"/>
      <point x="527" y="564" type="curve" smooth="yes"/>
      <point x="527" y="672"/>
      <point x="442" y="748"/>
      <point x="307" y="748" type="curve" smooth="yes"/>
      <point x="172" y="748"/>
      <point x="87" y="672"/>
      <point x="87" y="564" type="curve" smooth="yes"/>
      <point x="87" y="466"/>
      <point x="155" y="416"/>
      <point x="217" y="397" type="curve"/>
      <point x="217" y="387" type="line"/>
      <point x="141" y="374"/>
      <point x="60" y="303"/>
      <point x="60" y="195" type="curve" smooth="yes"/>
      <point x="60" y="83"/>
      <point x="148" y="-16"/>
    </contour>
    <contour>
      <point x="307" y="14" type="curve" smooth="yes"/>
      <point x="168" y="14"/>
      <point x="92" y="96"/>
      <point x="92" y="195" type="curve" smooth="yes"/>
      <point x="92" y="297"/>
      <point x="169" y="378"/>
      <point x="307" y="378" type="curve" smooth="yes"/>
      <point x="445" y="378"/>
      <point x="522" y="297"/>
      <point x="522" y="195" type="curve" smooth="yes"/>
      <point x="522" y="96"/>
      <point x="446" y="14"/>
    </contour>
    <contour>
      <point x="307" y="406" type="curve" smooth="yes"/>
      <point x="195" y="406"/>
      <point x="119" y="465"/>
      <point x="119" y="563" type="curve" smooth="yes"/>
      <point x="119" y="658"/>
      <point x="191" y="718"/>
      <point x="307" y="718" type="curve" smooth="yes"/>
      <point x="423" y="718"/>
      <point x="495" y="658"/>
      <point x="495" y="563" type="curve" smooth="yes"/>
      <point x="495" y="465"/>
      <point x="419" y="406"/>
    </contour>
  </outline>
</glyph>
<glyph name="question" format="2">
  <advance width="540"/>
  <unicode hex="003F"/>
  <outline>
    <contour>
      <point x="222" y="170" type="line"/>
      <point x="254" y="170" type="line"/>
      <point x="254" y="344" type="line"/>
      <point x="250" y="324" type="line"/>
      <point x="398" y="324"/>
      <point x="470" y="422"/>
      <point x="470" y="531" type="curve" smooth="yes"/>
      <point x="470" y="541" type="line" smooth="yes"/>
      <point x="470" y="653"/>
      <point x="388" y="748"/>
      <point x="262" y="748" type="curve" smooth="yes"/>
      <point x="135" y="748"/>
      <point x="50" y="654"/>
      <point x="50" y="522" type="curve"/>
      <point x="80" y="522" type="line"/>
      <point x="80" y="641"/>
      <point x="155" y="718"/>
      <point x="262" y="718" type="curve" smooth="yes"/>
      <point x="368" y="718"/>
      <point x="438" y="643"/>
      <point x="438" y="536" type="curve" smooth="yes"/>
      <point x="438" y="430"/>
      <point x="371" y="354"/>
      <point x="258" y="354" type="curve" smooth="yes"/>
      <point x="222" y="354" type="line"/>
    </contour>
    <contour>
      <point x="214" y="0" type="line"/>
      <point x="262" y="0" type="line"/>
      <point x="262" y="54" type="line"/>
      <point x="214" y="54" type="line"/>
    </contour>
  </outline>
</glyph>
<glyph name="B" format="2">
  <advance width="660"/>
  <unicode hex="0042"/>
  <outline>
    <contour>
      <point x="146" y="-2" type="line"/>
      <point x="373" y="-2" type="line" smooth="yes"/>
      <point x="508" y="-2"/>
      <point x="576" y="85"/>
      <point x="576" y="188" type="curve" smooth="yes"/>
      <point x="576" y="196" type="line" smooth="yes"/>
      <point x="576" y="310"/>
      <point x="492" y="380"/>
      <point x="373" y="380" type="curve" smooth="yes"/>
      <point x="146" y="380" type="line"/>
      <point x="146" y="356" type="line"/>
      <point x="379" y="356" type="line" smooth="yes"/>
      <point x="484" y="356"/>
      <point x="544" y="287"/>
      <point x="544" y="192" type="curve" smooth="yes"/>
      <point x="544" y="96"/>
      <point x="482" y="28"/>
      <point x="379" y="28" type="curve" smooth="yes"/>
      <point x="146" y="28" type="line"/>
    </contour>
    <contour>
      <point x="130" y="-2" type="line"/>
      <point x="162" y="-2" type="line"/>
      <point x="162" y="732" type="line"/>
      <point x="130" y="732" type="line"/>
    </contour>
    <contour>
      <point x="146" y="362" type="line"/>
      <point x="346" y="362" type="line" smooth="yes"/>
      <point x="471" y="362"/>
      <point x="546" y="430"/>
      <point x="546" y="540" type="curve" smooth="yes"/>
      <point x="546" y="548" type="line" smooth="yes"/>
      <point x="546" y="654"/>
      <point x="481" y="732"/>
      <point x="346" y="732" type="curve" smooth="yes"/>
      <point x="146" y="732" type="line"/>
      <point x="146" y="702" type="line"/>
      <point x="352" y="702" type="line" smooth="yes"/>
      <point x="463" y="702"/>
      <point x="514" y="636"/>
      <point x="514" y="544" type="curve" smooth="yes"/>
      <point x="514" y="452"/>
      <point x="463" y="386"/>
      <point x="352" y="386" type="curve" smooth="yes"/>
      <point x="146" y="386" type="line"/>
    </contour>
  </outline>
</glyph>
<glyph name="C" format="2">
  <advance width="792"/>
  <unicode hex="0043"/>
  <anchor x="425" y="0" name="bottom"/>
  <anchor x="421" y="730" name="top"/>
  <outline>
    <contour>
      <point x="429" y="-16" type="curve" smooth="yes"/>
      <point x="602" y="-16"/>
      <point x="719" y="84"/>
      <point x="744" y="237" type="curve"/>
      <point x="712" y="237" type="line"/>
      <point x="688" y="94"/>
      <point x="578" y="14"/>
      <point x="429" y="14" type="curve" smooth="yes"/>
      <point x="208" y="14"/>
      <point x="102" y="194"/>
      <point x="102" y="366" type="curve" smooth="yes"/>
      <point x="102" y="551"/>
      <point x="213" y="718"/>
      <point x="421" y="718" type="curve" smooth="yes"/>
      <point x="565" y="718"/>
      <point x="679" y="637"/>
      <point x="697" y="495" type="curve"/>
      <point x="729" y="495" type="line"/>
      <point x="710" y="647"/>
      <point x="591" y="748"/>
      <point x="421" y="748" type="curve" smooth="yes"/>
      <point x="185" y="748"/>
      <point x="70" y="557"/>
      <point x="70" y="372" type="curve" smooth="yes"/>
      <point x="70" y="360" type="line" smooth="yes"/>
      <point x="70" y="188"/>
      <point x="180" y="-16"/>
    </contour>
  </outline>
</glyph>
<glyph name="D" format="2">
  <advance width="804"/>
  <unicode hex="0044"/>
  <anchor x="393" y="0" name="bottom"/>
  <anchor x="206" y="365" name="center"/>
  <anchor x="391" y="730" name="top"/>
  <outline>
    <contour>
      <point x="143" y="-3" type="line"/>
      <point x="372" y="-3" type="line" smooth="yes"/>
      <point x="636" y="-3"/>
      <point x="744" y="183"/>
      <point x="744" y="360" type="curve" smooth="yes"/>
      <point x="744" y="373" type="line" smooth="yes"/>
      <point x="744" y="555"/>
      <point x="628" y="732"/>
      <point x="372" y="732" type="curve" smooth="yes"/>
      <point x="143" y="732" type="line"/>
      <point x="143" y="702" type="line"/>
      <point x="376" y="702" type="line" smooth="yes"/>
      <point x="607" y="702"/>
      <point x="712" y="543"/>
      <point x="712" y="366" type="curve" smooth="yes"/>
      <point x="712" y="195"/>
      <point x="613" y="27"/>
      <point x="376" y="27" type="curve" smooth="yes"/>
      <point x="143" y="27" type="line"/>
    </contour>
    <contour>
      <point x="130" y="-3" type="line"/>
      <point x="162" y="-3" type="line"/>
      <point x="162" y="732" type="line"/>
      <point x="130" y="732" type="line"/>
    </contour>
  </outline>
</glyph>
<glyph name="G" format="2">
  <advance width="831"/>
  <unicode hex="0047"/>
  <anchor x="430" y="0" name="bottom"/>
  <anchor x="419" y="730" name="top"/>
  <outline>
    <contour>
      <point x="435" y="-16" type="curve" smooth="yes"/>
      <point x="562" y="-16"/>
      <point x="657" y="31"/>
      <point x="714" y="102" type="curve"/>
      <point x="714" y="302" type="line"/>
      <point x="682" y="302" type="line"/>
      <point x="682" y="87" type="line"/>
      <point x="699" y="132" type="line"/>
      <point x="646" y="58"/>
      <point x="552" y="14"/>
      <point x="435" y="14" type="curve" smooth="yes"/>
      <point x="196" y="14"/>
      <point x="102" y="194"/>
      <point x="102" y="366" type="curve" smooth="yes"/>
      <point x="102" y="551"/>
      <point x="211" y="718"/>
      <point x="419" y="718" type="curve" smooth="yes"/>
      <point x="563" y="718"/>
      <point x="675" y="637"/>
      <point x="693" y="495" type="curve"/>
      <point x="725" y="495" type="line"/>
      <point x="706" y="647"/>
      <point x="589" y="748"/>
      <point x="419" y="748" type="curve" smooth="yes"/>
      <point x="183" y="748"/>
      <point x="70" y="557"/>
      <point x="70" y="372" type="curve" smooth="yes"/>
      <point x="70" y="360" type="line" smooth="yes"/>
      <point x="70" y="188"/>
      <point x="168" y="-16"/>
    </contour>
    <contour>
      <point x="407" y="292" type="line"/>
      <point x="785" y="292" type="line"/>
      <point x="785" y="320" type="line"/>
      <point x="407" y="320" type="line"/>
    </contour>
  </outline>
</glyph>
<glyph name="N" format="2">
  <advance width="822"/>
  <unicode hex="004E"/>
  <anchor x="389" y="0" name="bottom"/>
  <anchor x="428" y="730" name="top"/>
  <outline>
    <contour>
      <point x="130" y="0" type="line"/>
      <point x="162" y="0" type="line"/>
      <point x="162" y="712" type="line"/>
      <point x="142" y="700" type="line"/>
      <point x="174" y="700" type="line"/>
      <point x="631" y="0" type="line"/>
      <point x="692" y="0" type="line"/>
      <point x="692" y="730" type="line"/>
      <point x="660" y="730" type="line"/>
      <point x="660" y="18" type="line"/>
      <point x="680" y="30" type="line"/>
      <point x="648" y="30" type="line"/>
      <point x="191" y="730" type="line"/>
      <point x="130" y="730" type="line"/>
    </contour>
  </outline>
</glyph>
<glyph name="Q" format="2">
  <advance width="872"/>
  <unicode hex="0051"/>
  <anchor x="437" y="0" name="bottom"/>
  <anchor x="437" y="365" name="center"/>
  <anchor x="567" y="10" name="ogonek"/>
  <anchor x="437" y="730" name="top"/>
  <outline>
    <contour>
      <point x="569" y="-204" type="curve" smooth="yes"/>
      <point x="691" y="-204" type="line"/>
      <point x="691" y="-174" type="line"/>
      <point x="565" y="-174" type="line" smooth="yes"/>
      <point x="493" y="-174"/>
      <point x="457" y="-138"/>
      <point x="457" y="-66" type="curve" smooth="yes"/>
      <point x="457" y="2" type="line"/>
      <point x="425" y="2" type="line"/>
      <point x="425" y="-62" type="line" smooth="yes"/>
      <point x="425" y="-156"/>
      <point x="475" y="-204"/>
    </contour>
    <component base="O"/>
  </outline>
</glyph>
<glyph name="V" format="2">
  <advance width="680"/>
  <unicode hex="0056"/>
  <outline>
    <contour>
      <point x="304" y="0" type="line"/>
      <point x="381" y="0" type="line"/>
      <point x="644" y="730" type="line"/>
      <point x="611" y="730" type="line"/>
      <point x="354" y="14" type="line"/>
      <point x="383" y="30" type="line"/>
      <point x="304" y="30" type="line"/>
      <point x="331" y="14" type="line"/>
      <point x="61" y="730" type="line"/>
      <point x="28" y="730" type="line"/>
    </contour>
  </outline>
</glyph>
<glyph name="X" format="2">
  <advance width="662"/>
  <unicode hex="0058"/>
  <outline>
    <contour>
      <point x="24" y="1" type="line"/>
      <point x="60" y="0" type="line"/>
      <point x="323" y="356" type="line"/>
      <point x="333" y="356" type="line"/>
      <point x="589" y="0" type="line"/>
      <point x="624" y="0" type="line"/>
      <point x="348" y="383" type="line"/>
      <point x="346" y="361" type="line"/>
      <point x="613" y="730" type="line"/>
      <point x="577" y="730" type="line"/>
      <point x="336" y="396" type="line"/>
      <point x="326" y="396" type="line"/>
      <point x="90" y="730" type="line"/>
      <point x="55" y="730" type="line"/>
      <point x="311" y="369" type="line"/>
      <point x="313" y="391" type="line"/>
    </contour>
  </outline>
</glyph>
<glyph name="Y" format="2">
  <advance width="644"/>
  <unicode hex="0059"/>
  <anchor x="325" y="0" name="bottom"/>
  <anchor x="320" y="730" name="top"/>
  <outline>
    <contour>
      <point x="271" y="289" type="line"/>
      <point x="379" y="289" type="line"/>
      <point x="608" y="730" type="line"/>
      <point x="575" y="730" type="line"/>
      <point x="355" y="304" type="line"/>
      <point x="373" y="319" type="line"/>
      <point x="277" y="319" type="line"/>
      <point x="296" y="304" type="line"/>
      <point x="66" y="730" type="line"/>
      <point x="32" y="730" type="line"/>
    </contour>
    <contour>
      <point x="309" y="0" type="line"/>
      <point x="341" y="0" type="line"/>
      <point x="341" y="301" type="line"/>
      <point x="309" y="301" type="line"/>
    </contour>
  </outline>
</glyph>
<glyph name="backslash" format="2">
  <advance width="282"/>
  <unicode hex="005C"/>
  <outline>
    <contour>
      <point x="234" y="-60" type="line"/>
      <point x="264" y="-60" type="line"/>
      <point x="48" y="780" type="line"/>
      <point x="18" y="780" type="line"/>
    </contour>
  </outline>
</glyph>
<glyph name="underscore" format="2">
  <advance width="558"/>
  <unicode hex="005F"/>
  <outline>
    <contour>
      <point x="0" y="-100" type="line"/>
      <point x="558" y="-100" type="line"/>
      <point x="558" y="-72" type="line"/>
      <point x="0" y="-72" type="line"/>
    </contour>
  </outline>
</glyph>
<glyph name="a" format="2">
  <advance width="556"/>
  <unicode hex="0061"/>
  <anchor x="454" y="10" name="ogonek"/>
  <anchor x="273" y="521" name="top"/>
  <outline>
    <contour>
      <point x="428" y="0" type="line"/>
      <point x="454" y="0" type="line"/>
      <point x="454" y="344" type="line" smooth="yes"/>
      <point x="454" y="461"/>
      <point x="404" y="525"/>
      <point x="249" y="525" type="curve" smooth="yes"/>
      <point x="209" y="525"/>
      <point x="163" y="521"/>
      <point x="124" y="515" type="curve"/>
      <point x="124" y="485" type="line"/>
      <point x="162" y="491"/>
      <point x="212" y="495"/>
      <point x="265" y="495" type="curve" smooth="yes"/>
      <point x="380" y="495"/>
      <point x="422" y="441"/>
      <point x="422" y="352" type="curve" smooth="yes"/>
      <point x="422" y="156" type="line"/>
      <point x="428" y="156" type="line"/>
    </contour>
    <contour>
      <point x="241" y="-14" type="curve" smooth="yes"/>
      <point x="344" y="-14"/>
      <point x="433" y="46"/>
      <point x="438" y="172" type="curve"/>
      <point x="422" y="188" type="line"/>
      <point x="418" y="57"/>
      <point x="326" y="14"/>
      <point x="243" y="14" type="curve" smooth="yes"/>
      <point x="156" y="14"/>
      <point x="92" y="63"/>
      <point x="92" y="146" type="curve" smooth="yes"/>
      <point x="92" y="223"/>
      <point x="145" y="274"/>
      <point x="243" y="274" type="curve" smooth="yes"/>
      <point x="424" y="274" type="line"/>
      <point x="424" y="302" type="line"/>
      <point x="249" y="302" type="line" smooth="yes"/>
      <point x="129" y="302"/>
      <point x="60" y="241"/>
      <point x="60" y="147" type="curve" smooth="yes"/>
      <point x="60" y="43"/>
      <point x="142" y="-14"/>
    </contour>
  </outline>
</glyph>
<glyph name="f" format="2">
  <advance width="368"/>
  <unicode hex="0066"/>
  <outline>
    <contour>
      <point x="124" y="0" type="line"/>
      <point x="156" y="0" type="line"/>
      <point x="156" y="600" type="line" smooth="yes"/>
      <point x="156" y="664"/>
      <point x="192" y="700"/>
      <point x="260" y="700" type="curve" smooth="yes"/>
      <point x="340" y="700" type="line"/>
      <point x="340" y="730" type="line"/>
      <point x="270" y="730" type="line" smooth="yes"/>
      <point x="170" y="730"/>
      <point x="124" y="684"/>
      <point x="124" y="588" type="curve" smooth="yes"/>
    </contour>
    <contour>
      <point x="40" y="490" type="line"/>
      <point x="352" y="490" type="line"/>
      <point x="352" y="518" type="line"/>
      <point x="40" y="518" type="line"/>
    </contour>
  </outline>
</glyph>
<glyph name="j" format="2">
  <advance width="288"/>
  <unicode hex="006A"/>
  <outline>
    <contour>
      <point x="-6" y="-202" type="line"/>
      <point x="51" y="-202" type="line" smooth="yes"/>
      <point x="142" y="-202"/>
      <point x="178" y="-160"/>
      <point x="178" y="-56" type="curve" smooth="yes"/>
      <point x="178" y="520" type="line"/>
      <point x="146" y="520" type="line"/>
      <point x="146" y="-70" type="line" smooth="yes"/>
      <point x="146" y="-138"/>
      <point x="118" y="-172"/>
      <point x="63" y="-172" type="curve" smooth="yes"/>
      <point x="-6" y="-172" type="line"/>
    </contour>
    <contour>
      <point x="54" y="490" type="line"/>
      <point x="178" y="490" type="line"/>
      <point x="178" y="520" type="line"/>
      <point x="54" y="520" type="line"/>
    </contour>
    <contour>
      <point x="140" y="652" type="curve" smooth="yes"/>
      <point x="162" y="652"/>
      <point x="174" y="665"/>
      <point x="174" y="685" type="curve" smooth="yes"/>
      <point x="174" y="704"/>
      <point x="162" y="718"/>
      <point x="140" y="718" type="curve" smooth="yes"/>
      <point x="118" y="718"/>
      <point x="106" y="704"/>
      <point x="106" y="685" type="curve" smooth="yes"/>
      <point x="106" y="665"/>
      <point x="118" y="652"/>
    </contour>
  </outline>
</glyph>
<glyph name="k" format="2">
  <advance width="502"/>
  <unicode hex="006B"/>
  <anchor x="299" y="0" name="bottom"/>
  <anchor x="124" y="730" name="top"/>
  <outline>
    <contour>
      <point x="451" y="0" type="line"/>
      <point x="492" y="0" type="line"/>
      <point x="202" y="302" type="line"/>
      <point x="203" y="279" type="line"/>
      <point x="434" y="520" type="line"/>
      <point x="395" y="520" type="line"/>
      <point x="133" y="246" type="line"/>
      <point x="215" y="246" type="line"/>
    </contour>
    <contour>
      <point x="108" y="0" type="line"/>
      <point x="140" y="0" type="line"/>
      <point x="140" y="730" type="line"/>
      <point x="108" y="730" type="line"/>
    </contour>
  </outline>
</glyph>
<glyph name="n" format="2">
  <advance width="626"/>
  <unicode hex="006E"/>
  <anchor x="316" y="0" name="bottom"/>
  <anchor x="321" y="520" name="top"/>
  <outline>
    <contour>
      <point x="108" y="0" type="line"/>
      <point x="140" y="0" type="line"/>
      <point x="140" y="316" type="line" smooth="yes"/>
      <point x="140" y="428"/>
      <point x="210" y="504"/>
      <point x="322" y="504" type="curve" smooth="yes"/>
      <point x="432" y="504"/>
      <point x="492" y="429"/>
      <point x="492" y="320" type="curve" smooth="yes"/>
      <point x="492" y="0" type="line"/>
      <point x="524" y="0" type="line"/>
      <point x="524" y="312" type="line" smooth="yes"/>
      <point x="524" y="445"/>
      <point x="455" y="534"/>
      <point x="325" y="534" type="curve" smooth="yes"/>
      <point x="323" y="534" type="line" smooth="yes"/>
      <point x="191" y="534"/>
      <point x="122" y="440"/>
      <point x="122" y="312" type="curve"/>
      <point x="134" y="312" type="line"/>
      <point x="134" y="520" type="line"/>
      <point x="108" y="520" type="line"/>
    </contour>
  </outline>
</glyph>
<glyph name="o" format="2">
  <advance width="654"/>
  <unicode hex="006F"/>
  <note>
o
</note>
  <anchor x="327" y="0" name="bottom"/>
  <anchor x="327" y="260" name="center"/>
  <anchor x="440" y="9" name="ogonek"/>
  <anchor x="327" y="520" name="top"/>
  <outline>
    <contour>
      <point x="327" y="-16" type="curve" smooth="yes"/>
      <point x="498" y="-16"/>
      <point x="592" y="122"/>
      <point x="592" y="257" type="curve" smooth="yes"/>
      <point x="592" y="263" type="line" smooth="yes"/>
      <point x="592" y="402"/>
      <point x="494" y="536"/>
      <point x="327" y="536" type="curve" smooth="yes"/>
      <point x="160" y="536"/>
      <point x="62" y="402"/>
      <point x="62" y="263" type="curve" smooth="yes"/>
      <point x="62" y="257" type="line" smooth="yes"/>
      <point x="62" y="122"/>
      <point x="156" y="-16"/>
    </contour>
    <contour>
      <point x="327" y="14" type="curve" smooth="yes"/>
      <point x="176" y="14"/>
      <point x="94" y="132"/>
      <point x="94" y="260" type="curve" smooth="yes"/>
      <point x="94" y="392"/>
      <point x="180" y="506"/>
      <point x="327" y="506" type="curve" smooth="yes"/>
      <point x="474" y="506"/>
      <point x="560" y="392"/>
      <point x="560" y="260" type="curve" smooth="yes"/>
      <point x="560" y="132"/>
      <point x="478" y="14"/>
    </contour>
  </outline>
</glyph>
<glyph name="q" format="2">
  <advance width="674"/>
  <unicode hex="0071"/>
  <outline>
    <contour>
      <point x="534" y="-200" type="line"/>
      <point x="566" y="-200" type="line"/>
      <point x="566" y="520" type="line"/>
      <point x="540" y="520" type="line"/>
      <point x="540" y="309" type="line"/>
      <point x="556" y="289" type="line"/>
      <point x="556" y="416"/>
      <point x="466" y="536"/>
      <point x="313" y="536" type="curve" smooth="yes"/>
      <point x="148" y="536"/>
      <point x="62" y="393"/>
      <point x="62" y="263" type="curve" smooth="yes"/>
      <point x="62" y="257" type="line" smooth="yes"/>
      <point x="62" y="119"/>
      <point x="152" y="-16"/>
      <point x="313" y="-16" type="curve" smooth="yes"/>
      <point x="463" y="-16"/>
      <point x="554" y="96"/>
      <point x="554" y="231" type="curve"/>
      <point x="534" y="160" type="line"/>
    </contour>
    <contour>
      <point x="315" y="14" type="curve" smooth="yes"/>
      <point x="175" y="14"/>
      <point x="94" y="128"/>
      <point x="94" y="260" type="curve" smooth="yes"/>
      <point x="94" y="384"/>
      <point x="171" y="506"/>
      <point x="315" y="506" type="curve" smooth="yes"/>
      <point x="451" y="506"/>
      <point x="536" y="403"/>
      <point x="536" y="287" type="curve" smooth="yes"/>
      <point x="536" y="233" type="line" smooth="yes"/>
      <point x="536" y="109"/>
      <point x="447" y="14"/>
    </contour>
  </outline>
</glyph>
<glyph name="w" format="2">
  <advance width="784"/>
  <unicode hex="0077"/>
  <anchor x="398" y="0" name="bottom"/>
  <anchor x="390" y="520" name="top"/>
  <outline>
    <contour>
      <point x="238" y="0" type="line"/>
      <point x="269" y="0" type="line"/>
      <point x="394" y="499" type="line"/>
      <point x="386" y="499" type="line"/>
      <point x="526" y="0" type="line"/>
      <point x="558" y="0" type="line"/>
      <point x="418" y="503" type="line"/>
      <point x="363" y="503" type="line"/>
    </contour>
    <contour>
      <point x="208" y="0" type="line"/>
      <point x="260" y="0" type="line"/>
      <point x="260" y="30" type="line"/>
      <point x="208" y="30" type="line"/>
    </contour>
    <contour>
      <point x="199" y="0" type="line"/>
      <point x="231" y="0" type="line"/>
      <point x="73" y="520" type="line"/>
      <point x="40" y="520" type="line"/>
    </contour>
    <contour>
      <point x="538" y="0" type="line"/>
      <point x="583" y="0" type="line"/>
      <point x="583" y="30" type="line"/>
      <point x="538" y="30" type="line"/>
    </contour>
    <contour>
      <point x="565" y="0" type="line"/>
      <point x="596" y="0" type="line"/>
      <point x="738" y="520" type="line"/>
      <point x="706" y="520" type="line"/>
    </contour>
  </outline>
</glyph>
<glyph name="x" format="2">
  <advance width="522"/>
  <unicode hex="0078"/>
  <outline>
    <contour>
      <point x="40" y="0" type="line"/>
      <point x="74" y="0" type="line"/>
      <point x="255" y="242" type="line"/>
      <point x="267" y="242" type="line"/>
      <point x="452" y="0" type="line"/>
      <point x="487" y="0" type="line"/>
      <point x="268" y="286" type="line"/>
      <point x="276" y="265" type="line"/>
      <point x="457" y="520" type="line"/>
      <point x="423" y="520" type="line"/>
      <point x="267" y="298" type="line"/>
      <point x="255" y="298" type="line"/>
      <point x="92" y="520" type="line"/>
      <point x="57" y="520" type="line"/>
      <point x="253" y="254" type="line"/>
      <point x="246" y="275" type="line"/>
    </contour>
  </outline>
</glyph>
<glyph name="y" format="2">
  <advance width="508"/>
  <unicode hex="0079"/>
  <anchor x="247" y="520" name="top"/>
  <outline>
    <contour>
      <point x="38" y="-202" type="line"/>
      <point x="87" y="-202" type="line" smooth="yes"/>
      <point x="169" y="-202"/>
      <point x="231" y="-171"/>
      <point x="263" y="-77" type="curve" smooth="yes"/>
      <point x="466" y="520" type="line"/>
      <point x="434" y="520" type="line"/>
      <point x="237" y="-64" type="line" smooth="yes"/>
      <point x="207" y="-154"/>
      <point x="161" y="-172"/>
      <point x="89" y="-172" type="curve" smooth="yes"/>
      <point x="38" y="-172" type="line"/>
    </contour>
    <contour>
      <point x="229" y="14" type="line"/>
      <point x="282" y="14" type="line"/>
      <point x="282" y="44" type="line"/>
      <point x="229" y="44" type="line"/>
    </contour>
    <contour>
      <point x="220" y="14" type="line"/>
      <point x="252" y="14" type="line"/>
      <point x="61" y="520" type="line"/>
      <point x="28" y="520" type="line"/>
    </contour>
  </outline>
</glyph>
<glyph name="degree" format="2">
  <advance width="312"/>
  <unicode hex="00B0"/>
  <outline>
    <contour>
      <point x="156" y="486" type="curve" smooth="yes"/>
      <point x="224" y="486"/>
      <point x="278" y="535"/>
      <point x="278" y="608" type="curve" smooth="yes"/>
      <point x="278" y="681"/>
      <point x="224" y="730"/>
      <point x="156" y="730" type="curve" smooth="yes"/>
      <point x="89" y="730"/>
      <point x="34" y="681"/>
      <point x="34" y="608" type="curve" smooth="yes"/>
      <point x="34" y="535"/>
      <point x="89" y="486"/>
    </contour>
    <contour>
      <point x="156" y="513" type="curve" smooth="yes"/>
      <point x="102" y="513"/>
      <point x="63" y="552"/>
      <point x="63" y="608" type="curve" smooth="yes"/>
      <point x="63" y="664"/>
      <point x="102" y="703"/>
      <point x="156" y="703" type="curve" smooth="yes"/>
      <point x="211" y="703"/>
      <point x="249" y="664"/>
      <point x="249" y="608" type="curve" smooth="yes"/>
      <point x="249" y="552"/>
      <point x="211" y="513"/>
    </contour>
  </outline>
</glyph>
<glyph name="paragraph" format="2">
  <advance width="581"/>
  <unicode hex="00B6"/>
  <outline>
    <contour>
      <point x="203" y="430" type="curve" smooth="yes"/>
      <point x="317" y="430" type="line"/>
      <point x="317" y="734" type="line"/>
      <point x="203" y="734" type="line" smooth="yes"/>
      <point x="87" y="734"/>
      <point x="16" y="677"/>
      <point x="16" y="587" type="curve" smooth="yes"/>
      <point x="16" y="577" type="line" smooth="yes"/>
      <point x="16" y="487"/>
      <point x="87" y="430"/>
    </contour>
    <contour>
      <point x="307" y="0" type="line"/>
      <point x="339" y="0" type="line"/>
      <point x="339" y="734" type="line"/>
      <point x="307" y="734" type="line"/>
    </contour>
    <contour>
      <point x="419" y="0" type="line"/>
      <point x="451" y="0" type="line"/>
      <point x="451" y="734" type="line"/>
      <point x="419" y="734" type="line"/>
    </contour>
  </outline>
</glyph>
<glyph name="AE" format="2">
  <advance width="962"/>
  <unicode hex="00C6"/>
  <outline>
    <contour>
      <point x="26" y="0" type="line"/>
      <point x="58" y="0" type="line"/>
      <point x="346" y="715" type="line"/>
      <point x="324" y="700" type="line"/>
      <point x="502" y="700" type="line"/>
      <point x="502" y="730" type="line"/>
      <point x="323" y="730" type="line"/>
    </contour>
    <contour>
      <point x="171" y="313" type="line"/>
      <point x="502" y="313" type="line"/>
      <point x="502" y="343" type="line"/>
      <point x="180" y="343" type="line"/>
    </contour>
    <contour>
      <point x="489" y="0" type="line"/>
      <point x="521" y="0" type="line"/>
      <point x="521" y="730" type="line"/>
      <point x="489" y="730" type="line"/>
    </contour>
    <contour>
      <point x="506" y="0" type="line"/>
      <point x="888" y="0" type="line"/>
      <point x="888" y="30" type="line"/>
      <point x="506" y="30" type="line"/>
    </contour>
    <contour>
      <point x="506" y="352" type="line"/>
      <point x="849" y="352" type="line"/>
      <point x="849" y="382" type="line"/>
      <point x="506" y="382" type="line"/>
    </contour>
    <contour>
      <point x="506" y="700" type="line"/>
      <point x="875" y="700" type="line"/>
      <point x="875" y="730" type="line"/>
      <point x="506" y="730" type="line"/>
    </contour>
  </outline>
</glyph>
<glyph name="eth" format="2">
  <advance width="620"/>
  <unicode hex="00F0"/>
  <outline>
    <contour>
      <point x="309" y="-16" type="curve" smooth="yes"/>
      <point x="466" y="-16"/>
      <point x="553" y="95"/>
      <point x="553" y="273" type="curve" smooth="yes"/>
      <point x="553" y="285" type="line" smooth="yes"/>
      <point x="553" y="614"/>
      <point x="477" y="720"/>
      <point x="289" y="720" type="curve" smooth="yes"/>
      <point x="257" y="720"/>
      <point x="222" y="717"/>
      <point x="195" y="712" type="curve"/>
      <point x="195" y="682" type="line"/>
      <point x="225" y="687"/>
      <point x="260" y="690"/>
      <point x="289" y="690" type="curve" smooth="yes"/>
      <point x="360" y="690"/>
      <point x="400" y="675"/>
      <point x="433" y="650" type="curve" smooth="yes"/>
      <point x="491" y="605"/>
      <point x="521" y="486"/>
      <point x="523" y="331" type="curve"/>
      <point x="531" y="331" type="line"/>
      <point x="522" y="423"/>
      <point x="455" y="516"/>
      <point x="309" y="516" type="curve" smooth="yes"/>
      <point x="146" y="516"/>
      <point x="62" y="396"/>
      <point x="62" y="261" type="curve" smooth="yes"/>
      <point x="62" y="238" type="line" smooth="yes"/>
      <point x="62" y="107"/>
      <point x="148" y="-16"/>
    </contour>
    <contour>
      <point x="309" y="14" type="curve" smooth="yes"/>
      <point x="164" y="14"/>
      <point x="94" y="121"/>
      <point x="94" y="250" type="curve" smooth="yes"/>
      <point x="94" y="382"/>
      <point x="162" y="486"/>
      <point x="309" y="486" type="curve" smooth="yes"/>
      <point x="450" y="486"/>
      <point x="523" y="387"/>
      <point x="523" y="250" type="curve" smooth="yes"/>
      <point x="523" y="118"/>
      <point x="457" y="14"/>
    </contour>
    <contour>
      <point x="339" y="553" type="line"/>
      <point x="547" y="718" type="line"/>
      <point x="531" y="738" type="line"/>
      <point x="323" y="573" type="line"/>
    </contour>
  </outline>
</glyph>
<glyph name="Lslash" format="2">
  <advance width="530"/>
  <unicode hex="0141"/>
  <anchor x="324" y="-1" name="bottom"/>
  <anchor x="147" y="365" name="center"/>
  <anchor x="146" y="730" name="top"/>
  <anchor x="244" y="541" name="topright"/>
  <outline>
    <contour>
      <point x="156" y="318" type="line"/>
      <point x="355" y="434" type="line"/>
      <point x="355" y="464" type="line"/>
      <point x="156" y="348" type="line"/>
    </contour>
    <contour>
      <point x="40" y="250" type="line"/>
      <point x="137" y="307" type="line"/>
      <point x="137" y="337" type="line"/>
      <point x="40" y="280" type="line"/>
    </contour>
    <component base="L"/>
  </outline>
</glyph>
<glyph name="OE" format="2">
  <advance width="1068"/>
  <unicode hex="0152"/>
  <outline>
    <contour>
      <point x="451" y="-16" type="curve" smooth="yes"/>
      <point x="501" y="-16"/>
      <point x="554" y="-10"/>
      <point x="596" y="0" type="curve"/>
      <point x="622" y="0" type="line"/>
      <point x="622" y="730" type="line"/>
      <point x="602" y="730" type="line"/>
      <point x="563" y="740"/>
      <point x="502" y="748"/>
      <point x="451" y="748" type="curve" smooth="yes"/>
      <point x="208" y="748"/>
      <point x="70" y="575"/>
      <point x="70" y="373" type="curve" smooth="yes"/>
      <point x="70" y="361" type="line" smooth="yes"/>
      <point x="70" y="163"/>
      <point x="196" y="-16"/>
    </contour>
    <contour>
      <point x="451" y="14" type="curve" smooth="yes"/>
      <point x="217" y="14"/>
      <point x="102" y="175"/>
      <point x="102" y="366" type="curve" smooth="yes"/>
      <point x="102" y="563"/>
      <point x="228" y="718"/>
      <point x="451" y="718" type="curve" smooth="yes"/>
      <point x="503" y="718"/>
      <point x="559" y="710"/>
      <point x="600" y="701" type="curve"/>
      <point x="590" y="709" type="line"/>
      <point x="590" y="16" type="line"/>
      <point x="596" y="31" type="line"/>
      <point x="555" y="21"/>
      <point x="501" y="14"/>
    </contour>
    <contour>
      <point x="610" y="0" type="line"/>
      <point x="994" y="0" type="line"/>
      <point x="994" y="30" type="line"/>
      <point x="610" y="30" type="line"/>
    </contour>
    <contour>
      <point x="607" y="356" type="line"/>
      <point x="955" y="356" type="line"/>
      <point x="955" y="386" type="line"/>
      <point x="607" y="386" type="line"/>
    </contour>
    <contour>
      <point x="612" y="700" type="line"/>
      <point x="981" y="700" type="line"/>
      <point x="981" y="730" type="line"/>
      <point x="612" y="730" type="line"/>
    </contour>
  </outline>
</glyph>
<glyph name="tildecomb" format="2">
  <unicode hex="0303"/>
  <anchor x="144" y="520" name="_top"/>
  <anchor x="144" y="832" name="top"/>
  <outline>
    <contour>
      <point x="207" y="654" type="curve" smooth="yes"/>
      <point x="241" y="654"/>
      <point x="271" y="672"/>
      <point x="292" y="709" type="curve"/>
      <point x="271" y="726" type="line"/>
      <point x="253" y="697"/>
      <point x="233" y="682"/>
      <point x="208" y="682" type="curve" smooth="yes"/>
      <point x="162" y="682"/>
      <point x="144" y="734"/>
      <point x="85" y="734" type="curve" smooth="yes"/>
      <point x="52" y="734"/>
      <point x="21" y="716"/>
      <point x="0" y="679" type="curve"/>
      <point x="21" y="662" type="line"/>
      <point x="39" y="691"/>
      <point x="59" y="706"/>
      <point x="84" y="706" type="curve" smooth="yes"/>
      <point x="132" y="706"/>
      <point x="149" y="654"/>
    </contour>
  </outline>
</glyph>
<glyph name="dotaccentcomb" format="2">
  <unicode hex="0307"/>
  <anchor x="36" y="520" name="_top"/>
  <anchor x="36" y="800" name="top"/>
  <outline>
    <contour>
      <point x="36" y="654" type="curve" smooth="yes"/>
      <point x="60" y="654"/>
      <point x="72" y="668"/>
      <point x="72" y="688" type="curve" smooth="yes"/>
      <point x="72" y="707"/>
      <point x="60" y="722"/>
      <point x="36" y="722" type="curve" smooth="yes"/>
      <point x="12" y="722"/>
      <point x="0" y="707"/>
      <point x="0" y="688" type="curve" smooth="yes"/>
      <point x="0" y="668"/>
      <point x="12" y="654"/>
    </contour>
  </outline>
</glyph>
<glyph name="ringcomb" format="2">
  <unicode hex="030A"/>
  <anchor x="104" y="520" name="_top"/>
  <anchor x="104" y="796" name="top"/>
  <outline>
    <contour>
      <point x="104" y="602" type="curve" smooth="yes"/>
      <point x="167" y="602"/>
      <point x="208" y="648"/>
      <point x="208" y="704" type="curve" smooth="yes"/>
      <point x="208" y="760"/>
      <point x="167" y="806"/>
      <point x="104" y="806" type="curve" smooth="yes"/>
      <point x="42" y="806"/>
      <point x="0" y="760"/>
      <point x="0" y="704" type="curve" smooth="yes"/>
      <point x="0" y="648"/>
      <point x="42" y="602"/>
    </contour>
    <contour>
      <point x="104" y="628" type="curve" smooth="yes"/>
      <point x="57" y="628"/>
      <point x="28" y="660"/>
      <point x="28" y="704" type="curve" smooth="yes"/>
      <point x="28" y="748"/>
      <point x="57" y="780"/>
      <point x="104" y="780" type="curve" smooth="yes"/>
      <point x="152" y="780"/>
      <point x="180" y="748"/>
      <point x="180" y="704" type="curve" smooth="yes"/>
      <point x="180" y="660"/>
      <point x="152" y="628"/>
    </contour>
  </outline>
</glyph>
<glyph name="ogonekcomb" format="2">
  <unicode hex="0328"/>
  <anchor x="200" y="10" name="_ogonek"/>
  <outline>
    <contour>
      <point x="170" y="-238" type="curve" smooth="yes"/>
      <point x="188" y="-238"/>
      <point x="200" y="-235"/>
      <point x="214" y="-229" type="curve"/>
      <point x="214" y="-201" type="line"/>
      <point x="198" y="-207"/>
      <point x="184" y="-210"/>
      <point x="170" y="-210" type="curve" smooth="yes"/>
      <point x="134" y="-210"/>
      <point x="107" y="-191"/>
      <point x="107" y="-145" type="curve" smooth="yes"/>
      <point x="107" y="-99"/>
      <point x="132" y="-57"/>
      <point x="177" y="-19" type="curve" smooth="yes"/>
      <point x="200" y="0" type="line"/>
      <point x="185" y="20" type="line"/>
      <point x="162" y="1" type="line" smooth="yes"/>
      <point x="113" y="-39"/>
      <point x="79" y="-87"/>
      <point x="79" y="-145" type="curve" smooth="yes"/>
      <point x="79" y="-205"/>
      <point x="118" y="-238"/>
    </contour>
  </outline>
</glyph>
<glyph name="strokeshortcomb" format="2">
  <unicode hex="0335"/>
  <anchor x="150" y="267" name="_center"/>
  <outline>
    <contour>
      <point x="-6" y="253" type="line"/>
      <point x="306" y="253" type="line"/>
      <point x="306" y="281" type="line"/>
      <point x="-6" y="281" type="line"/>
    </contour>
  </outline>
</glyph>
<glyph name="endash" format="2">
  <advance width="494"/>
  <unicode hex="2013"/>
  <outline>
    <contour>
      <point x="18" y="264" type="line"/>
      <point x="476" y="264" type="line"/>
      <point x="476" y="292" type="line"/>
      <point x="18" y="292" type="line"/>
    </contour>
  </outline>
</glyph>
<glyph name="quoteright" format="2">
  <advance width="226"/>
  <unicode hex="2019"/>
  <outline>
    <contour>
      <point x="56" y="474" type="line"/>
      <point x="66" y="474" type="line" smooth="yes"/>
      <point x="132" y="474"/>
      <point x="174" y="501"/>
      <point x="174" y="636" type="curve" smooth="yes"/>
      <point x="174" y="653" type="line" smooth="yes"/>
      <point x="174" y="712"/>
      <point x="153" y="734"/>
      <point x="122" y="734" type="curve" smooth="yes"/>
      <point x="97" y="734"/>
      <point x="84" y="719"/>
      <point x="84" y="697" type="curve" smooth="yes"/>
      <point x="84" y="673"/>
      <point x="99" y="658"/>
      <point x="123" y="658" type="curve" smooth="yes"/>
      <point x="137" y="658"/>
      <point x="147" y="663"/>
      <point x="153" y="668" type="curve"/>
      <point x="146" y="679" type="line"/>
      <point x="146" y="630" type="line" smooth="yes"/>
      <point x="146" y="525"/>
      <point x="120" y="502"/>
      <point x="64" y="502" type="curve" smooth="yes"/>
      <point x="56" y="502" type="line"/>
    </contour>
  </outline>
</glyph>
<glyph name="daggerdbl" format="2">
  <advance width="500"/>
  <unicode hex="2021"/>
  <outline>
    <contour>
      <point x="60" y="492" type="line"/>
      <point x="440" y="492" type="line"/>
      <point x="440" y="520" type="line"/>
      <point x="60" y="520" type="line"/>
    </contour>
    <contour>
      <point x="235" y="-210" type="line"/>
      <point x="265" y="-210" type="line"/>
      <point x="265" y="10" type="line"/>
      <point x="235" y="10" type="line"/>
    </contour>
    <contour>
      <point x="60" y="0" type="line"/>
      <point x="440" y="0" type="line"/>
      <point x="440" y="28" type="line"/>
      <point x="60" y="28" type="line"/>
    </contour>
    <contour>
      <point x="238" y="118" type="line"/>
      <point x="262" y="118" type="line"/>
      <point x="262" y="402" type="line"/>
      <point x="238" y="402" type="line"/>
    </contour>
    <contour>
      <point x="235" y="510" type="line"/>
      <point x="265" y="510" type="line"/>
      <point x="265" y="730" type="line"/>
      <point x="235" y="730" type="line"/>
    </contour>
  </outline>
</glyph>
<glyph name="guilsinglleft" format="2">
  <advance width="278"/>
  <unicode hex="2039"/>
  <outline>
    <contour>
      <point x="188" y="39" type="line"/>
      <point x="220" y="39" type="line"/>
      <point x="91" y="252" type="line"/>
      <point x="91" y="268" type="line"/>
      <point x="218" y="483" type="line"/>
      <point x="187" y="483" type="line"/>
      <point x="64" y="274" type="line"/>
      <point x="64" y="244" type="line"/>
    </contour>
  </outline>
</glyph>
<glyph name="lessequal" format="2">
  <advance width="580"/>
  <unicode hex="2264"/>
  <outline>
    <contour>
      <point x="82" y="56" type="line"/>
      <point x="498" y="56" type="line"/>
      <point x="498" y="84" type="line"/>
      <point x="82" y="84" type="line"/>
    </contour>
    <contour>
      <point x="496" y="178" type="line"/>
      <point x="496" y="208" type="line"/>
      <point x="84" y="351" type="line"/>
      <point x="84" y="322" type="line"/>
    </contour>
    <contour>
      <point x="84" y="352" type="line"/>
      <point x="496" y="495" type="line"/>
      <point x="496" y="526" type="line"/>
      <point x="84" y="382" type="line"/>
    </contour>
    <contour>
      <point x="84" y="338" type="line"/>
      <point x="106" y="338" type="line"/>
      <point x="106" y="366" type="line"/>
      <point x="84" y="366" type="line"/>
    </contour>
  </outline>
</glyph>
<glyph name="fi" format="2">
  <advance width="636"/>
  <unicode hex="FB01"/>
  <outline>
    <contour>
      <point x="124" y="0" type="line"/>
      <point x="156" y="0" type="line"/>
      <point x="156" y="606" type="line" smooth="yes"/>
      <point x="156" y="670"/>
      <point x="192" y="706"/>
      <point x="260" y="706" type="curve" smooth="yes"/>
      <point x="332" y="706" type="line"/>
      <point x="332" y="736" type="line"/>
      <point x="270" y="736" type="line" smooth="yes"/>
      <point x="170" y="736"/>
      <point x="124" y="690"/>
      <point x="124" y="594" type="curve" smooth="yes"/>
    </contour>
    <contour>
      <point x="40" y="490" type="line"/>
      <point x="344" y="490" type="line"/>
      <point x="344" y="518" type="line"/>
      <point x="40" y="518" type="line"/>
    </contour>
    <contour>
      <point x="494" y="0" type="line"/>
      <point x="526" y="0" type="line"/>
      <point x="526" y="520" type="line"/>
      <point x="494" y="520" type="line"/>
    </contour>
    <contour>
      <point x="404" y="490" type="line"/>
      <point x="526" y="490" type="line"/>
      <point x="526" y="520" type="line"/>
      <point x="404" y="520" type="line"/>
    </contour>
    <contour>
      <point x="488" y="642" type="curve" smooth="yes"/>
      <point x="510" y="642"/>
      <point x="522" y="655"/>
      <point x="522" y="675" type="curve" smooth="yes"/>
      <point x="522" y="694"/>
      <point x="510" y="708"/>
      <point x="488" y="708" type="curve" smooth="yes"/>
      <point x="466" y="708"/>
      <point x="454" y="694"/>
      <point x="454" y="675" type="curve" smooth="yes"/>
      <point x="454" y="655"/>
      <point x="466" y="642"/>
    </contour>
  </outline>
</glyph>
<glyph name="P.salt" format="2">
  <advance width="609"/>
  <outline>
    <contour>
      <point x="144" y="362" type="line"/>
      <point x="387" y="362" type="line" smooth="yes"/>
      <point x="527" y="362"/>
      <point x="585" y="441"/>
      <point x="585" y="542" type="curve" smooth="yes"/>
      <point x="585" y="552" type="line" smooth="yes"/>
      <point x="585" y="653"/>
      <point x="527" y="732"/>
      <point x="387" y="732" type="curve" smooth="yes"/>
      <point x="144" y="732" type="line"/>
      <point x="144" y="702" type="line"/>
      <point x="389" y="702" type="line" smooth="yes"/>
      <point x="510" y="702"/>
      <point x="553" y="635"/>
      <point x="553" y="547" type="curve" smooth="yes"/>
      <point x="553" y="459"/>
      <point x="510" y="392"/>
      <point x="389" y="392" type="curve" smooth="yes"/>
      <point x="144" y="392" type="line"/>
    </contour>
    <contour>
      <point x="130" y="0" type="line"/>
      <point x="162" y="0" type="line"/>
      <point x="162" y="732" type="line"/>
      <point x="130" y="732" type="line"/>
    </contour>
  </outline>
</glyph>
<glyph name="Q.salt" format="2">
  <advance width="872"/>
  <anchor x="437" y="0" name="bottom"/>
  <anchor x="437" y="365" name="center"/>
  <anchor x="567" y="10" name="ogonek"/>
  <anchor x="437" y="730" name="top"/>
  <outline>
    <contour>
      <point x="715" y="-64" type="line"/>
      <point x="751" y="-64" type="line"/>
      <point x="492" y="288" type="line"/>
      <point x="456" y="288" type="line"/>
    </contour>
    <component base="O"/>
  </outline>
</glyph>
<glyph name="R.salt" format="2">
  <advance width="683"/>
  <anchor x="373" y="0" name="bottom"/>
  <anchor x="333" y="730" name="top"/>
  <outline>
    <contour>
      <point x="130" y="0" type="line"/>
      <point x="162" y="0" type="line"/>
      <point x="162" y="732" type="line"/>
      <point x="130" y="732" type="line"/>
    </contour>
    <contour>
      <point x="586" y="0" type="line"/>
      <point x="621" y="0" type="line"/>
      <point x="417" y="368" type="line"/>
      <point x="382" y="368" type="line"/>
    </contour>
    <contour>
      <point x="144" y="358" type="line"/>
      <point x="393" y="358" type="line" smooth="yes"/>
      <point x="531" y="358"/>
      <point x="591" y="433"/>
      <point x="591" y="540" type="curve" smooth="yes"/>
      <point x="591" y="550" type="line" smooth="yes"/>
      <point x="591" y="657"/>
      <point x="531" y="732"/>
      <point x="393" y="732" type="curve" smooth="yes"/>
      <point x="144" y="732" type="line"/>
      <point x="144" y="702" type="line"/>
      <point x="395" y="702" type="line" smooth="yes"/>
      <point x="516" y="702"/>
      <point x="559" y="636"/>
      <point x="559" y="545" type="curve" smooth="yes"/>
      <point x="559" y="454"/>
      <point x="516" y="388"/>
      <point x="395" y="388" type="curve" smooth="yes"/>
      <point x="144" y="388" type="line"/>
    </contour>
  </outline>
</glyph>
<glyph name="bracketleft.case" format="2">
  <advance width="356"/>
  <outline>
    <contour>
      <point x="136" y="-118" type="line"/>
      <point x="168" y="-118" type="line"/>
      <point x="168" y="806" type="line"/>
      <point x="136" y="806" type="line"/>
    </contour>
    <contour>
      <point x="136" y="-118" type="line"/>
      <point x="286" y="-118" type="line"/>
      <point x="286" y="-90" type="line"/>
      <point x="136" y="-90" type="line"/>
    </contour>
    <contour>
      <point x="136" y="778" type="line"/>
      <point x="286" y="778" type="line"/>
      <point x="286" y="806" type="line"/>
      <point x="136" y="806" type="line"/>
    </contour>
  </outline>
</glyph>
<glyph name="caroncomb.alt" format="2">
  <anchor x="0" y="520" name="_topright"/>
  <outline>
    <contour>
      <point x="92" y="578" type="line"/>
      <point x="122" y="578" type="line"/>
      <point x="124" y="800" type="line"/>
      <point x="92" y="800" type="line"/>
    </contour>
  </outline>
</glyph>
<glyph name="commaaccentcomb.case" format="2">
  <anchor x="50" y="0" name="_bottom"/>
  <anchor x="49" y="-300" name="bottom"/>
  <outline>
    <contour>
      <point x="0" y="-256" type="line"/>
      <point x="8" y="-256" type="line" smooth="yes"/>
      <point x="65" y="-256"/>
      <point x="100" y="-219"/>
      <point x="100" y="-134" type="curve" smooth="yes"/>
      <point x="100" y="-130" type="line" smooth="yes"/>
      <point x="100" y="-80"/>
      <point x="80" y="-58"/>
      <point x="49" y="-58" type="curve" smooth="yes"/>
      <point x="25" y="-58"/>
      <point x="10" y="-74"/>
      <point x="10" y="-95" type="curve" smooth="yes"/>
      <point x="10" y="-118"/>
      <point x="24" y="-132"/>
      <point x="44" y="-132" type="curve" smooth="yes"/>
      <point x="64" y="-132"/>
      <point x="74" y="-119"/>
      <point x="78" y="-104" type="curve"/>
      <point x="74" y="-104" type="line"/>
      <point x="74" y="-136" type="line" smooth="yes"/>
      <point x="74" y="-203"/>
      <point x="51" y="-232"/>
      <point x="8" y="-232" type="curve" smooth="yes"/>
      <point x="0" y="-232" type="line"/>
    </contour>
  </outline>
</glyph>
<glyph name="commaturnedabovecomb.case" format="2">
  <anchor x="52" y="720" name="_top"/>
  <anchor x="52" y="916" name="top"/>
  <outline>
    <contour>
      <point x="51" y="762" type="curve" smooth="yes"/>
      <point x="75" y="762"/>
      <point x="90" y="778"/>
      <point x="90" y="799" type="curve" smooth="yes"/>
      <point x="90" y="822"/>
      <point x="76" y="836"/>
      <point x="56" y="836" type="curve" smooth="yes"/>
      <point x="36" y="836"/>
      <point x="26" y="823"/>
      <point x="22" y="808" type="curve"/>
      <point x="26" y="808" type="line"/>
      <point x="26" y="844" type="line" smooth="yes"/>
      <point x="26" y="905"/>
      <point x="48" y="932"/>
      <point x="90" y="932" type="curve" smooth="yes"/>
      <point x="98" y="932" type="line"/>
      <point x="98" y="956" type="line"/>
      <point x="90" y="956" type="line" smooth="yes"/>
      <point x="34" y="956"/>
      <point x="0" y="921"/>
      <point x="0" y="842" type="curve" smooth="yes"/>
      <point x="0" y="838" type="line" smooth="yes"/>
      <point x="0" y="784"/>
      <point x="21" y="762"/>
    </contour>
  </outline>
</glyph>
<glyph name="currency.tnum" format="2">
  <advance width="626"/>
  <outline>
    <contour>
      <point x="313" y="159" type="curve" smooth="yes"/>
      <point x="437" y="159"/>
      <point x="521" y="256"/>
      <point x="521" y="366" type="curve" smooth="yes"/>
      <point x="521" y="376" type="line" smooth="yes"/>
      <point x="521" y="489"/>
      <point x="437" y="583"/>
      <point x="313" y="583" type="curve" smooth="yes"/>
      <point x="189" y="583"/>
      <point x="105" y="489"/>
      <point x="105" y="376" type="curve" smooth="yes"/>
      <point x="105" y="366" type="line" smooth="yes"/>
      <point x="105" y="256"/>
      <point x="189" y="159"/>
    </contour>
    <contour>
      <point x="84" y="125" type="line"/>
      <point x="181" y="219" type="line"/>
      <point x="162" y="238" type="line"/>
      <point x="65" y="144" type="line"/>
    </contour>
    <contour>
      <point x="162" y="504" type="line"/>
      <point x="181" y="523" type="line"/>
      <point x="84" y="617" type="line"/>
      <point x="65" y="598" type="line"/>
    </contour>
    <contour>
      <point x="313" y="187" type="curve" smooth="yes"/>
      <point x="206" y="187"/>
      <point x="135" y="270"/>
      <point x="135" y="371" type="curve" smooth="yes"/>
      <point x="135" y="475"/>
      <point x="206" y="555"/>
      <point x="313" y="555" type="curve" smooth="yes"/>
      <point x="420" y="555"/>
      <point x="491" y="475"/>
      <point x="491" y="371" type="curve" smooth="yes"/>
      <point x="491" y="270"/>
      <point x="420" y="187"/>
    </contour>
    <contour>
      <point x="542" y="125" type="line"/>
      <point x="561" y="144" type="line"/>
      <point x="464" y="238" type="line"/>
      <point x="445" y="219" type="line"/>
    </contour>
    <contour>
      <point x="464" y="504" type="line"/>
      <point x="561" y="598" type="line"/>
      <point x="542" y="617" type="line"/>
      <point x="445" y="523" type="line"/>
    </contour>
  </outline>
</glyph>
<glyph name="dollar.tnum" format="2">
  <advance width="626"/>
  <outline>
    <contour>
      <point x="328" y="2" type="curve" smooth="yes"/>
      <point x="489" y="2"/>
      <point x="569" y="83"/>
      <point x="569" y="193" type="curve" smooth="yes"/>
      <point x="569" y="295"/>
      <point x="497" y="377"/>
      <point x="359" y="391" type="curve" smooth="yes"/>
      <point x="301" y="397" type="line" smooth="yes"/>
      <point x="202" y="407"/>
      <point x="147" y="455"/>
      <point x="147" y="542" type="curve" smooth="yes"/>
      <point x="147" y="629"/>
      <point x="199" y="698"/>
      <point x="323" y="698" type="curve" smooth="yes"/>
      <point x="453" y="698"/>
      <point x="509" y="618"/>
      <point x="509" y="522" type="curve"/>
      <point x="541" y="522" type="line"/>
      <point x="541" y="633"/>
      <point x="471" y="728"/>
      <point x="323" y="728" type="curve" smooth="yes"/>
      <point x="181" y="728"/>
      <point x="115" y="644"/>
      <point x="115" y="542" type="curve" smooth="yes"/>
      <point x="115" y="440"/>
      <point x="182" y="379"/>
      <point x="296" y="367" type="curve" smooth="yes"/>
      <point x="354" y="361" type="line" smooth="yes"/>
      <point x="480" y="348"/>
      <point x="537" y="279"/>
      <point x="537" y="193" type="curve" smooth="yes"/>
      <point x="537" y="94"/>
      <point x="466" y="32"/>
      <point x="328" y="32" type="curve" smooth="yes"/>
      <point x="177" y="32"/>
      <point x="107" y="104"/>
      <point x="107" y="218" type="curve"/>
      <point x="75" y="218" type="line"/>
      <point x="75" y="93"/>
      <point x="154" y="2"/>
    </contour>
    <contour>
      <point x="312" y="-129" type="line"/>
      <point x="342" y="-129" type="line"/>
      <point x="342" y="17" type="line"/>
      <point x="312" y="17" type="line"/>
    </contour>
    <contour>
      <point x="308" y="708" type="line"/>
      <point x="338" y="708" type="line"/>
      <point x="338" y="827" type="line"/>
      <point x="308" y="827" type="line"/>
    </contour>
  </outline>
</glyph>
<glyph name="dotaccentcomb.case" format="2">
  <anchor x="36" y="730" name="_top"/>
  <anchor x="36" y="942" name="top"/>
  <outline>
    <contour>
      <point x="36" y="832" type="curve" smooth="yes"/>
      <point x="58" y="832"/>
      <point x="72" y="845"/>
      <point x="72" y="867" type="curve" smooth="yes"/>
      <point x="72" y="888"/>
      <point x="58" y="902"/>
      <point x="36" y="902" type="curve" smooth="yes"/>
      <point x="14" y="902"/>
      <point x="0" y="888"/>
      <point x="0" y="867" type="curve" smooth="yes"/>
      <point x="0" y="845"/>
      <point x="14" y="832"/>
    </contour>
  </outline>
</glyph>
<glyph name="endash.case" format="2">
  <advance width="494"/>
  <outline>
    <contour>
      <point x="18" y="358" type="line"/>
      <point x="476" y="358" type="line"/>
      <point x="476" y="386" type="line"/>
      <point x="18" y="386" type="line"/>
    </contour>
  </outline>
</glyph>
<glyph name="f.salt" format="2">
  <advance width="356"/>
  <outline>
    <contour>
      <point x="130" y="0" type="line"/>
      <point x="162" y="0" type="line"/>
      <point x="162" y="634" type="line" smooth="yes"/>
      <point x="162" y="682"/>
      <point x="188" y="712"/>
      <point x="238" y="712" type="curve" smooth="yes"/>
      <point x="282" y="712"/>
      <point x="314" y="682"/>
      <point x="314" y="634" type="curve"/>
      <point x="344" y="634" type="line"/>
      <point x="344" y="691"/>
      <point x="304" y="742"/>
      <point x="238" y="742" type="curve" smooth="yes"/>
      <point x="166" y="742"/>
      <point x="130" y="691"/>
      <point x="130" y="630" type="curve" smooth="yes"/>
    </contour>
    <contour>
      <point x="44" y="490" type="line"/>
      <point x="338" y="490" type="line"/>
      <point x="338" y="518" type="line"/>
      <point x="44" y="518" type="line"/>
    </contour>
  </outline>
</glyph>
<glyph name="f_f_i.salt" format="2">
  <advance width="950"/>
  <outline>
    <contour>
      <point x="130" y="0" type="line"/>
      <point x="162" y="0" type="line"/>
      <point x="162" y="636" type="line" smooth="yes"/>
      <point x="162" y="683"/>
      <point x="186" y="712"/>
      <point x="235" y="712" type="curve" smooth="yes"/>
      <point x="278" y="712"/>
      <point x="308" y="683"/>
      <point x="308" y="636" type="curve"/>
      <point x="338" y="636" type="line"/>
      <point x="338" y="692"/>
      <point x="300" y="742"/>
      <point x="235" y="742" type="curve" smooth="yes"/>
      <point x="164" y="742"/>
      <point x="130" y="692"/>
      <point x="130" y="632" type="curve" smooth="yes"/>
    </contour>
    <contour>
      <point x="462" y="0" type="line"/>
      <point x="494" y="0" type="line"/>
      <point x="494" y="640" type="line" smooth="yes"/>
      <point x="494" y="688"/>
      <point x="520" y="718"/>
      <point x="570" y="718" type="curve" smooth="yes"/>
      <point x="614" y="718"/>
      <point x="646" y="688"/>
      <point x="646" y="640" type="curve"/>
      <point x="676" y="640" type="line"/>
      <point x="676" y="697"/>
      <point x="636" y="748"/>
      <point x="570" y="748" type="curve" smooth="yes"/>
      <point x="498" y="748"/>
      <point x="462" y="697"/>
      <point x="462" y="636" type="curve" smooth="yes"/>
    </contour>
    <contour>
      <point x="808" y="0" type="line"/>
      <point x="840" y="0" type="line"/>
      <point x="840" y="520" type="line"/>
      <point x="808" y="520" type="line"/>
    </contour>
    <contour>
      <point x="44" y="492" type="line"/>
      <point x="660" y="492" type="line"/>
      <point x="660" y="520" type="line"/>
      <point x="44" y="520" type="line"/>
    </contour>
    <contour>
      <point x="724" y="490" type="line"/>
      <point x="840" y="490" type="line"/>
      <point x="840" y="520" type="line"/>
      <point x="724" y="520" type="line"/>
    </contour>
    <contour>
      <point x="802" y="642" type="curve" smooth="yes"/>
      <point x="824" y="642"/>
      <point x="836" y="655"/>
      <point x="836" y="675" type="curve" smooth="yes"/>
      <point x="836" y="694"/>
      <point x="824" y="708"/>
      <point x="802" y="708" type="curve" smooth="yes"/>
      <point x="780" y="708"/>
      <point x="768" y="694"/>
      <point x="768" y="675" type="curve" smooth="yes"/>
      <point x="768" y="655"/>
      <point x="780" y="642"/>
    </contour>
  </outline>
</glyph>
<glyph name="f_f_j" format="2">
  <advance width="976"/>
  <outline>
    <contour>
      <point x="124" y="0" type="line"/>
      <point x="156" y="0" type="line"/>
      <point x="156" y="606" type="line" smooth="yes"/>
      <point x="156" y="670"/>
      <point x="192" y="706"/>
      <point x="260" y="706" type="curve" smooth="yes"/>
      <point x="334" y="706" type="line"/>
      <point x="334" y="736" type="line"/>
      <point x="270" y="736" type="line" smooth="yes"/>
      <point x="170" y="736"/>
      <point x="124" y="690"/>
      <point x="124" y="594" type="curve" smooth="yes"/>
    </contour>
    <contour>
      <point x="454" y="0" type="line"/>
      <point x="486" y="0" type="line"/>
      <point x="486" y="600" type="line" smooth="yes"/>
      <point x="486" y="664"/>
      <point x="522" y="700"/>
      <point x="590" y="700" type="curve" smooth="yes"/>
      <point x="670" y="700" type="line"/>
      <point x="670" y="730" type="line"/>
      <point x="600" y="730" type="line" smooth="yes"/>
      <point x="500" y="730"/>
      <point x="454" y="684"/>
      <point x="454" y="588" type="curve" smooth="yes"/>
    </contour>
    <contour>
      <point x="682" y="-202" type="line"/>
      <point x="739" y="-202" type="line" smooth="yes"/>
      <point x="830" y="-202"/>
      <point x="866" y="-160"/>
      <point x="866" y="-56" type="curve" smooth="yes"/>
      <point x="866" y="520" type="line"/>
      <point x="834" y="520" type="line"/>
      <point x="834" y="-70" type="line" smooth="yes"/>
      <point x="834" y="-138"/>
      <point x="806" y="-172"/>
      <point x="751" y="-172" type="curve" smooth="yes"/>
      <point x="682" y="-172" type="line"/>
    </contour>
    <contour>
      <point x="40" y="492" type="line"/>
      <point x="682" y="492" type="line"/>
      <point x="682" y="520" type="line"/>
      <point x="40" y="520" type="line"/>
    </contour>
    <contour>
      <point x="742" y="490" type="line"/>
      <point x="866" y="490" type="line"/>
      <point x="866" y="520" type="line"/>
      <point x="742" y="520" type="line"/>
    </contour>
    <contour>
      <point x="828" y="652" type="curve" smooth="yes"/>
      <point x="850" y="652"/>
      <point x="862" y="665"/>
      <point x="862" y="685" type="curve" smooth="yes"/>
      <point x="862" y="704"/>
      <point x="850" y="718"/>
      <point x="828" y="718" type="curve" smooth="yes"/>
      <point x="806" y="718"/>
      <point x="794" y="704"/>
      <point x="794" y="685" type="curve" smooth="yes"/>
      <point x="794" y="665"/>
      <point x="806" y="652"/>
    </contour>
  </outline>
</glyph>
<glyph name="f_f_l.salt" format="2">
  <advance width="954"/>
  <outline>
    <contour>
      <point x="130" y="0" type="line"/>
      <point x="162" y="0" type="line"/>
      <point x="162" y="636" type="line" smooth="yes"/>
      <point x="162" y="683"/>
      <point x="186" y="712"/>
      <point x="235" y="712" type="curve" smooth="yes"/>
      <point x="278" y="712"/>
      <point x="308" y="683"/>
      <point x="308" y="636" type="curve"/>
      <point x="338" y="636" type="line"/>
      <point x="338" y="692"/>
      <point x="300" y="742"/>
      <point x="235" y="742" type="curve" smooth="yes"/>
      <point x="164" y="742"/>
      <point x="130" y="692"/>
      <point x="130" y="632" type="curve" smooth="yes"/>
    </contour>
    <contour>
      <point x="462" y="0" type="line"/>
      <point x="494" y="0" type="line"/>
      <point x="494" y="640" type="line" smooth="yes"/>
      <point x="494" y="688"/>
      <point x="519" y="718"/>
      <point x="568" y="718" type="curve" smooth="yes"/>
      <point x="611" y="718"/>
      <point x="642" y="688"/>
      <point x="642" y="640" type="curve"/>
      <point x="672" y="640" type="line"/>
      <point x="672" y="697"/>
      <point x="633" y="748"/>
      <point x="568" y="748" type="curve" smooth="yes"/>
      <point x="497" y="748"/>
      <point x="462" y="697"/>
      <point x="462" y="636" type="curve" smooth="yes"/>
    </contour>
    <contour>
      <point x="851" y="-6" type="curve" smooth="yes"/>
      <point x="907" y="-6" type="line"/>
      <point x="907" y="24" type="line"/>
      <point x="847" y="24" type="line" smooth="yes"/>
      <point x="815" y="24"/>
      <point x="801" y="39"/>
      <point x="801" y="80" type="curve" smooth="yes"/>
      <point x="801" y="730" type="line"/>
      <point x="769" y="730" type="line"/>
      <point x="769" y="84" type="line" smooth="yes"/>
      <point x="769" y="19"/>
      <point x="803" y="-6"/>
    </contour>
    <contour>
      <point x="44" y="490" type="line"/>
      <point x="664" y="490" type="line"/>
      <point x="664" y="518" type="line"/>
      <point x="44" y="518" type="line"/>
    </contour>
  </outline>
</glyph>
<glyph name="five.tnum" format="2">
  <advance width="626"/>
  <outline>
    <contour>
      <point x="321" y="-16" type="curve" smooth="yes"/>
      <point x="480" y="-16"/>
      <point x="558" y="92"/>
      <point x="558" y="210" type="curve" smooth="yes"/>
      <point x="558" y="222" type="line" smooth="yes"/>
      <point x="558" y="340"/>
      <point x="480" y="448"/>
      <point x="321" y="448" type="curve" smooth="yes"/>
      <point x="249" y="448"/>
      <point x="194" y="421"/>
      <point x="147" y="375" type="curve"/>
      <point x="164" y="377" type="line"/>
      <point x="198" y="711" type="line"/>
      <point x="183" y="700" type="line"/>
      <point x="493" y="700" type="line"/>
      <point x="493" y="730" type="line"/>
      <point x="171" y="730" type="line"/>
      <point x="133" y="355" type="line"/>
      <point x="163" y="355" type="line"/>
      <point x="206" y="396"/>
      <point x="261" y="418"/>
      <point x="321" y="418" type="curve" smooth="yes"/>
      <point x="460" y="418"/>
      <point x="526" y="328"/>
      <point x="526" y="216" type="curve" smooth="yes"/>
      <point x="526" y="104"/>
      <point x="460" y="14"/>
      <point x="321" y="14" type="curve" smooth="yes"/>
      <point x="184" y="14"/>
      <point x="116" y="104"/>
      <point x="116" y="216" type="curve"/>
      <point x="84" y="216" type="line"/>
      <point x="84" y="92"/>
      <point x="164" y="-16"/>
    </contour>
  </outline>
</glyph>
<glyph name="guilsinglleft.case" format="2">
  <advance width="278"/>
  <outline>
    <contour>
      <point x="190" y="141" type="line"/>
      <point x="222" y="141" type="line"/>
      <point x="91" y="357" type="line"/>
      <point x="91" y="373" type="line"/>
      <point x="220" y="591" type="line"/>
      <point x="189" y="591" type="line"/>
      <point x="64" y="379" type="line"/>
      <point x="64" y="349" type="line"/>
    </contour>
  </outline>
</glyph>
<glyph name="lslash.salt" format="2">
  <advance width="282"/>
  <anchor x="163" y="0" name="bottom"/>
  <anchor x="128" y="480" name="center"/>
  <anchor x="112" y="730" name="top"/>
  <anchor x="130" y="532" name="topright"/>
  <outline>
    <contour>
      <point x="24" y="263" type="line"/>
      <point x="102" y="310" type="line"/>
      <point x="102" y="341" type="line"/>
      <point x="24" y="294" type="line"/>
    </contour>
    <contour>
      <point x="122" y="322" type="line"/>
      <point x="197" y="367" type="line"/>
      <point x="197" y="398" type="line"/>
      <point x="122" y="353" type="line"/>
    </contour>
    <component base="l.salt"/>
  </outline>
</glyph>
<glyph name="ogonekcomb.case" format="2">
  <anchor x="200" y="10" name="_ogonek"/>
  <outline>
    <contour>
      <point x="170" y="-244" type="curve" smooth="yes"/>
      <point x="189" y="-244"/>
      <point x="202" y="-241"/>
      <point x="216" y="-235" type="curve"/>
      <point x="216" y="-207" type="line"/>
      <point x="200" y="-213"/>
      <point x="185" y="-216"/>
      <point x="170" y="-216" type="curve" smooth="yes"/>
      <point x="133" y="-216"/>
      <point x="103" y="-196"/>
      <point x="103" y="-148" type="curve" smooth="yes"/>
      <point x="103" y="-100"/>
      <point x="129" y="-59"/>
      <point x="177" y="-19" type="curve" smooth="yes"/>
      <point x="200" y="0" type="line"/>
      <point x="185" y="20" type="line"/>
      <point x="162" y="1" type="line" smooth="yes"/>
      <point x="110" y="-42"/>
      <point x="75" y="-88"/>
      <point x="75" y="-148" type="curve" smooth="yes"/>
      <point x="75" y="-210"/>
      <point x="117" y="-244"/>
    </contour>
  </outline>
</glyph>
<glyph name="parenleft.case" format="2">
  <advance width="356"/>
  <outline>
    <contour>
      <point x="290" y="-118" type="curve"/>
      <point x="326" y="-118" type="line"/>
      <point x="207" y="21"/>
      <point x="134" y="149"/>
      <point x="134" y="347" type="curve" smooth="yes"/>
      <point x="134" y="543"/>
      <point x="207" y="669"/>
      <point x="326" y="806" type="curve"/>
      <point x="290" y="806" type="line"/>
      <point x="182" y="687"/>
      <point x="102" y="550"/>
      <point x="102" y="347" type="curve" smooth="yes"/>
      <point x="102" y="142"/>
      <point x="182" y="3"/>
    </contour>
  </outline>
</glyph>
<glyph name="plus.tnum" format="2">
  <advance width="626"/>
  <outline>
    <contour>
      <point x="297" y="113" type="line"/>
      <point x="329" y="113" type="line"/>
      <point x="329" y="575" type="line"/>
      <point x="297" y="575" type="line"/>
    </contour>
    <contour>
      <point x="100" y="330" type="line"/>
      <point x="526" y="330" type="line"/>
      <point x="526" y="358" type="line"/>
      <point x="100" y="358" type="line"/>
    </contour>
  </outline>
</glyph>
<glyph name="r.salt" format="2">
  <advance width="414"/>
  <note>
r / design an alternative version with a round hook. Look at lettera (based on Olivetti Candia)
</note>
  <anchor x="124" y="0" name="bottom"/>
  <anchor x="228" y="520" name="top"/>
  <outline>
    <contour>
      <point x="108" y="0" type="line"/>
      <point x="140" y="0" type="line"/>
      <point x="140" y="358" type="line" smooth="yes"/>
      <point x="140" y="446"/>
      <point x="188" y="494"/>
      <point x="276" y="494" type="curve" smooth="yes"/>
      <point x="392" y="494" type="line"/>
      <point x="392" y="524" type="line"/>
      <point x="282" y="524" type="line" smooth="yes"/>
      <point x="172" y="524"/>
      <point x="124" y="454"/>
      <point x="124" y="358" type="curve"/>
      <point x="134" y="358" type="line"/>
      <point x="134" y="520" type="line"/>
      <point x="108" y="520" type="line"/>
    </contour>
  </outline>
</glyph>
<glyph name="seven.salt" format="2">
  <advance width="514"/>
  <outline>
    <contour>
      <point x="208" y="0" type="line"/>
      <point x="240" y="0" type="line"/>
      <point x="240" y="146" type="line" smooth="yes"/>
      <point x="240" y="379"/>
      <point x="307" y="541"/>
      <point x="480" y="670" type="curve"/>
      <point x="480" y="730" type="line"/>
      <point x="24" y="730" type="line"/>
      <point x="24" y="700" type="line"/>
      <point x="447" y="700" type="line"/>
      <point x="451" y="685" type="line"/>
      <point x="285" y="565"/>
      <point x="208" y="389"/>
      <point x="208" y="146" type="curve" smooth="yes"/>
    </contour>
  </outline>
</glyph>
<glyph name="tildecomb.case" format="2">
  <anchor x="154" y="730" name="_top"/>
  <anchor x="154" y="930" name="top"/>
  <outline>
    <contour>
      <point x="217" y="830" type="curve" smooth="yes"/>
      <point x="256" y="830"/>
      <point x="289" y="853"/>
      <point x="308" y="888" type="curve"/>
      <point x="285" y="902" type="line"/>
      <point x="270" y="872"/>
      <point x="245" y="858"/>
      <point x="218" y="858" type="curve" smooth="yes"/>
      <point x="168" y="858"/>
      <point x="149" y="907"/>
      <point x="92" y="907" type="curve" smooth="yes"/>
      <point x="52" y="907"/>
      <point x="17" y="884"/>
      <point x="0" y="849" type="curve"/>
      <point x="23" y="835" type="line"/>
      <point x="38" y="865"/>
      <point x="64" y="879"/>
      <point x="91" y="879" type="curve" smooth="yes"/>
      <point x="141" y="879"/>
      <point x="161" y="830"/>
    </contour>
  </outline>
</glyph>
<glyph name="u.salt" format="2">
  <advance width="608"/>
  <anchor x="304" y="0" name="bottom"/>
  <anchor x="412" y="17" name="ogonek"/>
  <anchor x="304" y="520" name="top"/>
  <anchor x="592" y="520" name="topright"/>
  <outline>
    <contour>
      <point x="304" y="-16" type="curve" smooth="yes"/>
      <point x="442" y="-16"/>
      <point x="510" y="66"/>
      <point x="510" y="196" type="curve" smooth="yes"/>
      <point x="510" y="520" type="line"/>
      <point x="478" y="520" type="line"/>
      <point x="478" y="194" type="line" smooth="yes"/>
      <point x="478" y="78"/>
      <point x="422" y="14"/>
      <point x="304" y="14" type="curve" smooth="yes"/>
      <point x="186" y="14"/>
      <point x="130" y="77"/>
      <point x="130" y="194" type="curve" smooth="yes"/>
      <point x="130" y="520" type="line"/>
      <point x="98" y="520" type="line"/>
      <point x="98" y="196" type="line" smooth="yes"/>
      <point x="98" y="65"/>
      <point x="166" y="-16"/>
    </contour>
  </outline>
</glyph>
<glyph name="zero.tnum" format="2">
  <advance width="626"/>
  <outline>
    <contour>
      <point x="313" y="-16" type="curve" smooth="yes"/>
      <point x="457" y="-16"/>
      <point x="548" y="105"/>
      <point x="548" y="347" type="curve" smooth="yes"/>
      <point x="548" y="381" type="line" smooth="yes"/>
      <point x="548" y="632"/>
      <point x="453" y="748"/>
      <point x="313" y="748" type="curve" smooth="yes"/>
      <point x="173" y="748"/>
      <point x="78" y="632"/>
      <point x="78" y="381" type="curve" smooth="yes"/>
      <point x="78" y="347" type="line" smooth="yes"/>
      <point x="78" y="105"/>
      <point x="169" y="-16"/>
    </contour>
    <contour>
      <point x="313" y="14" type="curve" smooth="yes"/>
      <point x="189" y="14"/>
      <point x="110" y="113"/>
      <point x="110" y="365" type="curve" smooth="yes"/>
      <point x="110" y="623"/>
      <point x="193" y="718"/>
      <point x="313" y="718" type="curve" smooth="yes"/>
      <point x="433" y="718"/>
      <point x="516" y="623"/>
      <point x="516" y="365" type="curve" smooth="yes"/>
      <point x="516" y="113"/>
      <point x="437" y="14"/>
    </contour>
  </outline>
</glyph>
